# Blender v2.80 (sub 45) OBJ File: 'objects.blend'
# www.blender.org
mtllib steelbeam.mtl
o Steelbeam_Cube
v 0.005349 -0.073342 -1.000000
v -0.005349 -0.073342 -1.000000
v -0.005349 0.073342 -1.000000
v 0.005349 0.073342 -1.000000
v -0.005349 -0.073342 1.000000
v 0.005349 -0.073342 1.000000
v 0.005349 0.073342 1.000000
v -0.005349 0.073342 1.000000
v 0.016767 -0.063814 1.000000
v 0.005349 -0.052396 1.000000
v 0.000000 -0.063814 1.000000
v 0.005349 -0.073338 1.000000
v 0.011058 -0.062284 1.000000
v 0.006879 -0.058105 1.000000
v -0.005349 -0.052396 1.000000
v -0.016767 -0.063814 1.000000
v -0.005349 -0.073338 1.000000
v -0.006879 -0.058105 1.000000
v -0.011058 -0.062284 1.000000
v 0.005349 0.052396 1.000000
v 0.016767 0.063814 1.000000
v 0.005349 0.073338 1.000000
v 0.000000 0.063814 1.000000
v 0.006879 0.058105 1.000000
v 0.011058 0.062284 1.000000
v -0.016767 0.063814 1.000000
v -0.005349 0.052396 1.000000
v -0.005349 0.073338 1.000000
v -0.011058 0.062284 1.000000
v -0.006879 0.058105 1.000000
v -0.016767 -0.063814 -1.000000
v -0.005349 -0.052396 -1.000000
v 0.000000 -0.063814 -1.000000
v -0.005349 -0.073338 -1.000000
v -0.011058 -0.062284 -1.000000
v -0.006879 -0.058105 -1.000000
v 0.005349 -0.052396 -1.000000
v 0.016767 -0.063814 -1.000000
v 0.005349 -0.073338 -1.000000
v 0.006879 -0.058105 -1.000000
v 0.011058 -0.062284 -1.000000
v -0.005349 0.052396 -1.000000
v -0.016767 0.063814 -1.000000
v -0.005349 0.073338 -1.000000
v 0.000000 0.063814 -1.000000
v -0.006879 0.058105 -1.000000
v -0.011058 0.062284 -1.000000
v 0.016767 0.063814 -1.000000
v 0.005349 0.052396 -1.000000
v 0.005349 0.073338 -1.000000
v 0.011058 0.062284 -1.000000
v 0.006879 0.058105 -1.000000
v -0.073342 -0.072532 1.000000
v -0.072532 -0.073342 1.000000
v -0.072532 0.073342 1.000000
v -0.073342 0.072532 1.000000
v -0.072532 -0.073342 -1.000000
v -0.073342 -0.072532 -1.000000
v -0.073342 0.072532 -1.000000
v -0.072532 0.073342 -1.000000
v 0.072532 -0.073342 1.000000
v 0.073342 -0.072532 1.000000
v 0.073342 0.072532 1.000000
v 0.072532 0.073342 1.000000
v 0.073342 -0.072532 -1.000000
v 0.072532 -0.073342 -1.000000
v 0.072532 0.073342 -1.000000
v 0.073342 0.072532 -1.000000
v -0.072532 -0.063814 1.000000
v -0.073342 -0.064624 1.000000
v -0.073342 0.064624 1.000000
v -0.072532 0.063814 1.000000
v -0.072532 0.063814 -1.000000
v -0.073342 0.064624 -1.000000
v -0.073342 -0.064624 -1.000000
v -0.072532 -0.063814 -1.000000
v 0.073342 0.064624 -1.000000
v 0.072532 0.063814 -1.000000
v 0.072532 -0.063814 -1.000000
v 0.073342 -0.064624 -1.000000
v 0.072532 0.063814 1.000000
v 0.073342 0.064624 1.000000
v 0.073342 -0.064624 1.000000
v 0.072532 -0.063814 1.000000
vt 0.683173 0.002171
vt 0.711338 0.000109
vt 0.753163 0.209172
vt 0.159840 0.992178
vt 0.157593 0.994987
vt 0.132911 0.997732
vt 0.130101 0.995485
vt 0.098758 0.775939
vt 0.099963 0.775830
vt 0.140484 0.818126
vt 0.730338 0.995498
vt 0.727522 0.997733
vt 0.702867 0.994894
vt 0.700632 0.992077
vt 0.720650 0.818213
vt 0.761342 0.775891
vt 0.762549 0.776006
vt 0.122938 -0.002037
vt 0.152182 0.002423
vt 0.099837 0.224923
vt 0.103648 0.283482
vt 0.173572 0.485675
vt 0.146744 0.492574
vt 0.756912 0.268003
vt 0.738634 0.492719
vt 0.708721 0.493977
vt 0.140520 0.675095
vt 0.099829 0.717417
vt 0.098622 0.717302
vt 0.130832 0.497810
vt 0.133649 0.495575
vt 0.158304 0.498414
vt 0.160539 0.501231
vt 0.720028 0.746680
vt 0.761207 0.717478
vt 0.762412 0.717369
vt 0.669499 0.771074
vt 0.191665 0.771013
vt 0.141142 0.746628
vt 0.191671 0.722234
vt 0.669505 0.722294
vt 0.193403 0.227256
vt 0.713121 0.241115
vt 0.194360 0.275150
vt 0.758133 0.268040
vt 0.720687 0.675182
vt 0.701331 0.501130
vt 0.703578 0.498320
vt 0.728260 0.495576
vt 0.731070 0.497823
vt 0.102441 0.283658
vt 0.167834 0.221068
vt 0.143534 0.251944
vt 0.150369 0.301118
vt 0.705880 0.191592
vt 0.688955 0.272010
vt 0.714712 0.796022
vt 0.695302 0.777647
vt 0.695309 0.715724
vt 0.714712 0.697363
vt 0.165861 0.777584
vt 0.146459 0.795945
vt 0.146458 0.697286
vt 0.165868 0.715661
vt 0.710647 0.169345
vt 0.680792 0.005594
vt 0.708329 -0.002037
vt 0.754376 0.208981
vt 0.098622 0.224873
vt 0.118619 0.001535
vt 0.149610 -0.000470
vt 0.139828 0.179135
vt 0.142378 0.489595
vt 0.145519 0.323134
vt 0.171447 0.488612
vt 0.705473 0.490170
vt 0.717145 0.313862
vt 0.735728 0.495345
vt 0.661637 0.218101
vt 0.663428 0.265892
vt 0.147062 0.201851
vt 0.169039 0.282253
vt 0.687170 0.210738
vt 0.709821 0.291184
vt 0.372277 0.997437
vt 0.338686 0.997437
vt 0.338686 -0.002563
vt 0.372277 -0.002563
vt 0.411217 0.997437
vt 0.377626 0.997437
vt 0.377626 -0.002563
vt 0.411217 -0.002563
vt 0.542205 -0.002563
vt 0.542205 0.997437
vt 0.514323 0.997437
vt 0.514323 -0.002563
vt 0.546731 0.997437
vt 0.542778 0.997437
vt 0.542778 -0.002563
vt 0.546731 -0.002563
vt 0.305705 0.997437
vt 0.305705 -0.002563
vt 0.333587 -0.002563
vt 0.333587 0.997437
vt 0.580895 0.997437
vt 0.547304 0.997437
vt 0.547304 -0.002563
vt 0.580895 -0.002563
vt 0.505458 0.997437
vt 0.453063 0.997437
vt 0.453063 -0.002563
vt 0.505458 -0.002563
vt 0.415744 0.997437
vt 0.411790 0.997437
vt 0.411790 -0.002563
vt 0.415744 -0.002563
vt 0.620407 -0.002563
vt 0.624360 -0.002563
vt 0.624360 0.997437
vt 0.620407 0.997437
vt 0.586243 0.997437
vt 0.586243 -0.002563
vt 0.416316 -0.002563
vt 0.444198 -0.002563
vt 0.444198 0.997437
vt 0.416316 0.997437
vt 0.652815 0.997437
vt 0.624933 0.997437
vt 0.624933 -0.002563
vt 0.652815 -0.002563
vt 0.334159 -0.002563
vt 0.338113 -0.002563
vt 0.338113 0.997437
vt 0.334159 0.997437
vt 0.661680 -0.002563
vt 0.714075 -0.002563
vt 0.714075 0.997437
vt 0.661680 0.997437
vt 0.655770 -0.002563
vt 0.655770 0.997437
vt 0.658725 -0.002563
vt 0.658725 0.997437
vt 0.717030 -0.002563
vt 0.717030 0.997437
vt 0.719985 -0.002563
vt 0.719985 0.997437
vt 0.722940 -0.002563
vt 0.722940 0.997437
vt 0.447153 -0.002563
vt 0.447153 0.997437
vt 0.450108 -0.002563
vt 0.450108 0.997437
vt 0.508413 -0.002563
vt 0.508413 0.997437
vt 0.511368 -0.002563
vt 0.511368 0.997437
vt 0.619834 0.997437
vt 0.619834 -0.002563
vn -0.0000 0.0000 1.0000
vn 0.0000 0.0000 -1.0000
vn 0.0000 0.7071 -0.7071
vn -0.2971 0.7173 -0.6302
vn -0.2971 0.7173 0.6302
vn 0.0000 0.7071 0.7071
vn 0.2971 0.7173 -0.6302
vn 0.2971 0.7173 0.6302
vn 0.0881 0.6693 -0.7377
vn 0.0881 0.6693 0.7377
vn 0.7173 -0.2971 -0.6302
vn 0.7173 0.2971 -0.6302
vn 0.7173 0.2971 0.6302
vn 0.7172 -0.2971 0.6303
vn -0.0881 -0.6693 -0.7377
vn -0.0881 -0.6693 0.7377
vn -0.2971 -0.7173 0.6302
vn -0.2971 -0.7173 -0.6302
vn 0.0000 -0.7071 -0.7071
vn 0.2971 -0.7173 -0.6302
vn 0.2971 -0.7173 0.6302
vn 0.0000 -0.7071 0.7071
vn 0.6693 0.0881 -0.7377
vn 0.6693 -0.0881 -0.7377
vn 0.6693 -0.0881 0.7377
vn 0.6693 0.0881 0.7377
vn 0.7173 -0.2971 0.6302
vn -0.7173 -0.2971 0.6302
vn -0.7173 0.2971 0.6302
vn -0.7173 0.2971 -0.6302
vn -0.7173 -0.2971 -0.6302
vn 0.0881 -0.6693 0.7377
vn 0.0881 -0.6693 -0.7377
vn -0.0881 0.6693 -0.7377
vn -0.0881 0.6693 0.7377
vn -0.6693 0.0881 0.7377
vn -0.6693 -0.0881 0.7377
vn -0.6693 -0.0881 -0.7377
vn -0.6693 0.0881 -0.7377
vn -0.3189 0.5523 0.7703
vn -0.3786 0.6557 -0.6532
vn -0.5523 0.3189 0.7703
vn -0.6557 0.3786 -0.6532
vn -0.5523 -0.3189 0.7703
vn -0.6557 -0.3786 -0.6532
vn -0.3189 -0.5523 0.7703
vn -0.3786 -0.6557 -0.6532
vn 0.3189 -0.5523 0.7703
vn 0.3786 -0.6557 -0.6532
vn 0.5523 -0.3189 0.7703
vn 0.6557 -0.3786 -0.6532
vn 0.5523 0.3189 0.7703
vn 0.6557 0.3786 -0.6532
vn 0.3189 0.5523 0.7703
vn 0.3786 0.6557 -0.6532
usemtl steelbeam
s off
f 82/1/1 64/2/1 22/3/1
f 73/4/2 74/5/2 59/6/2 60/7/2 3/8/2 44/9/2 43/10/2
f 57/11/2 58/12/2 75/13/2 76/14/2 31/15/2 34/16/2 2/17/2
f 62/18/1 84/19/1 12/20/1
f 17/21/1 69/22/1 53/23/1
f 28/24/1 55/25/1 71/26/1
f 48/27/2 50/28/2 4/29/2 67/30/2 68/31/2 77/32/2 78/33/2
f 2/17/2 34/16/2 33/34/2 39/35/2 1/36/2
f 33/34/2 32/37/2 42/38/2 45/39/2 49/40/2 37/41/2
f 10/42/1 23/43/1 15/44/1
f 22/3/1 8/45/1 28/24/1
f 45/39/2 44/9/2 3/8/2 4/29/2 50/28/2
f 1/36/2 39/35/2 38/46/2 79/47/2 80/48/2 65/49/2 66/50/2
f 12/20/1 17/21/1 5/51/1
f 14/52/1 11/53/1 12/20/1
f 19/54/1 17/21/1 11/53/1
f 25/55/1 22/3/1 23/43/1
f 30/56/1 23/43/1 28/24/1
f 31/15/2 35/57/2 36/58/2 32/37/2 33/34/2 34/16/2
f 37/41/2 40/59/2 41/60/2 38/46/2 39/35/2 33/34/2
f 42/38/2 46/61/2 47/62/2 43/10/2 44/9/2 45/39/2
f 48/27/2 51/63/2 52/64/2 49/40/2 45/39/2 50/28/2
f 21/65/1 81/66/1 82/1/1
f 82/1/1 63/67/1 64/2/1
f 64/2/1 7/68/1 22/3/1
f 22/3/1 21/65/1 82/1/1
f 6/69/1 61/70/1 62/18/1
f 62/18/1 83/71/1 84/19/1
f 84/19/1 9/72/1 12/20/1
f 12/20/1 6/69/1 62/18/1
f 54/73/1 5/51/1 17/21/1
f 17/21/1 16/74/1 69/22/1
f 69/22/1 70/75/1 53/23/1
f 53/23/1 54/73/1 17/21/1
f 72/76/1 26/77/1 28/24/1
f 28/24/1 8/45/1 55/25/1
f 55/25/1 56/78/1 71/26/1
f 71/26/1 72/76/1 28/24/1
f 15/44/1 11/53/1 10/42/1
f 10/42/1 20/79/1 23/43/1
f 23/43/1 27/80/1 15/44/1
f 28/24/1 23/43/1 22/3/1
f 22/3/1 7/68/1 8/45/1
f 5/51/1 6/69/1 12/20/1
f 12/20/1 11/53/1 17/21/1
f 12/20/1 9/72/1 13/81/1
f 14/52/1 10/42/1 11/53/1
f 12/20/1 13/81/1 14/52/1
f 11/53/1 15/44/1 18/82/1
f 19/54/1 16/74/1 17/21/1
f 11/53/1 18/82/1 19/54/1
f 23/43/1 20/79/1 24/83/1
f 25/55/1 21/65/1 22/3/1
f 23/43/1 24/83/1 25/55/1
f 28/24/1 26/77/1 29/84/1
f 30/56/1 27/80/1 23/43/1
f 28/24/1 29/84/1 30/56/1
s 1
f 3/85/3 60/86/4 55/87/5 8/88/6
f 67/89/7 4/90/3 7/91/6 64/92/8
f 84/93/8 79/94/7 38/95/9 9/96/10
f 65/97/11 80/98/12 83/99/13 62/100/14
f 43/101/15 26/102/16 72/103/17 73/104/18
f 1/105/19 66/106/20 61/107/21 6/108/22
f 37/109/23 49/110/24 20/111/25 10/112/26
f 77/113/11 68/114/12 63/115/13 82/116/27
f 4/90/3 3/85/3 8/88/6 7/91/6
f 53/117/28 70/118/29 75/119/30 58/120/31
f 2/121/19 1/105/19 6/108/22 5/122/22
f 81/123/21 21/124/32 48/125/33 78/126/20
f 31/127/34 76/128/4 69/129/5 16/130/35
f 71/131/28 56/132/29 59/133/30 74/134/31
f 15/135/36 27/136/37 42/137/38 32/138/39
f 31/127/34 16/130/35 19/139/40 35/140/41
f 35/140/41 19/139/40 18/141/42 36/142/43
f 36/142/43 18/141/42 15/135/36 32/138/39
f 42/137/38 27/136/37 30/143/44 46/144/45
f 46/144/45 30/143/44 29/145/46 47/146/47
f 47/146/47 29/145/46 26/147/16 43/148/15
f 48/125/33 21/124/32 25/149/48 51/150/49
f 51/150/49 25/149/48 24/151/50 52/152/51
f 52/152/51 24/151/50 20/111/25 49/110/24
f 37/109/23 10/112/26 14/153/52 40/154/53
f 40/154/53 14/153/52 13/155/54 41/156/55
f 41/156/55 13/155/54 9/96/10 38/95/9
f 57/157/18 54/158/17 53/117/28 58/120/31
f 55/87/5 60/86/4 59/133/30 56/132/29
f 61/107/21 66/106/20 65/97/11 62/100/14
f 67/89/7 64/92/8 63/115/13 68/114/12
f 79/94/7 84/93/8 83/99/13 80/98/12
f 77/113/11 82/116/27 81/123/21 78/126/20
f 69/129/5 76/128/4 75/119/30 70/118/29
f 71/131/28 74/134/31 73/104/18 72/103/17
f 57/157/18 2/121/19 5/122/22 54/158/17
